<svg xmlns="http://www.w3.org/2000/svg" viewBox="0 0 202.56 85.81"><g id="Capa_2" data-name="Capa 2"><g id="Capa_1-2" data-name="Capa 1"><polygon points="53.81 77.55 39.65 63.8 39.63 19.91 26.25 19.91 26.25 25.51 34.02 25.51 33.99 66.18 53.81 85.81 59.31 80.56 53.81 77.55"/><polygon points="53.81 77.55 39.65 63.8 39.63 19.91 19.67 19.91 19.65 63.8 5.5 77.55 0 80.56 5.5 85.81 25.32 66.18 25.28 25.51 34.02 25.51 33.99 66.18 53.81 85.81 59.31 80.56 53.81 77.55"/><polygon points="0 0 0 80.56 5.5 85.81 5.5 5.5 53.81 5.5 53.81 85.81 59.31 80.56 59.31 0 0 0"/><path d="M72.19,22.48V2.68h3A12.7,12.7,0,0,1,78.33,3a4.8,4.8,0,0,1,2,1,5.44,5.44,0,0,1,1.32,1.89,5.71,5.71,0,0,1,.5,2.3,4.72,4.72,0,0,1-1.63,3.61A4.74,4.74,0,0,1,83,13.71a5.37,5.37,0,0,1,.92,3.1,5.3,5.3,0,0,1-1.64,3.93,5.42,5.42,0,0,1-2.22,1.37,12.82,12.82,0,0,1-3.37.37Zm3-11.3h.94a3.46,3.46,0,0,0,2.44-.73,2.86,2.86,0,0,0,.77-2.18,2.73,2.73,0,0,0-.79-2.12,3.33,3.33,0,0,0-2.31-.72h-1Zm0,8.49H77a4.57,4.57,0,0,0,3-.79,2.74,2.74,0,0,0,1-2.18,2.81,2.81,0,0,0-1-2.16,5,5,0,0,0-3.35-.85H75.18Z"/><path d="M86.73,4.8a1.8,1.8,0,0,1,.56-1.31,1.8,1.8,0,0,1,1.32-.55,1.84,1.84,0,0,1,1.33.55,1.77,1.77,0,0,1,.55,1.32,1.79,1.79,0,0,1-.55,1.33,1.78,1.78,0,0,1-1.32.56,1.8,1.8,0,0,1-1.33-.56A1.8,1.8,0,0,1,86.73,4.8ZM90.05,10V22.48H87.17V10Z"/><path d="M96.59.82V11.44a5.42,5.42,0,0,1,8.13.09,6.75,6.75,0,0,1,1.68,4.67A6.87,6.87,0,0,1,104.71,21a5.46,5.46,0,0,1-4.25,1.87,5.37,5.37,0,0,1-3.87-1.67v1.31H93.71V.82Zm6.86,15.51a4.33,4.33,0,0,0-1-2.93A3.12,3.12,0,0,0,100,12.25a3.28,3.28,0,0,0-2.58,1.12,4.08,4.08,0,0,0-1,2.87,4.21,4.21,0,0,0,1,2.91A3.25,3.25,0,0,0,100,20.26a3.19,3.19,0,0,0,2.49-1.11A4.07,4.07,0,0,0,103.45,16.33Z"/><path d="M112.34.82V22.48h-2.89V.82Z"/><path d="M115.56,4.8a1.79,1.79,0,0,1,.55-1.31,1.87,1.87,0,0,1,2.65,0,1.77,1.77,0,0,1,.55,1.32,1.79,1.79,0,0,1-.55,1.33,1.78,1.78,0,0,1-1.32.56,1.81,1.81,0,0,1-1.33-.56A1.8,1.8,0,0,1,115.56,4.8ZM118.88,10V22.48H116V10Z"/><path d="M121.94,16.15a6.24,6.24,0,0,1,1.94-4.61,6.85,6.85,0,0,1,9.46,0,6.38,6.38,0,0,1,1.92,4.7,6.31,6.31,0,0,1-1.93,4.7,6.62,6.62,0,0,1-4.78,1.89,6.36,6.36,0,0,1-4.71-1.92A6.47,6.47,0,0,1,121.94,16.15Zm3,.05a4.24,4.24,0,0,0,1,3,3.89,3.89,0,0,0,5.41,0,4.07,4.07,0,0,0,1-2.91,4.1,4.1,0,0,0-1-2.91,3.84,3.84,0,0,0-5.38,0A4,4,0,0,0,124.89,16.2Z"/><path d="M141.45,12.68v9.8h-2.89v-9.8h-1.23V10h1.23V5.42h2.89V10h2.24v2.69Z"/><path d="M157.25,16.92H148.3a3.78,3.78,0,0,0,1,2.44,3.05,3.05,0,0,0,2.27.9,3,3,0,0,0,1.79-.51,7.21,7.21,0,0,0,1.57-1.9l2.44,1.36a10,10,0,0,1-1.19,1.65A6.44,6.44,0,0,1,154.83,22a5.72,5.72,0,0,1-1.55.65,8,8,0,0,1-1.81.2A5.91,5.91,0,0,1,147,21.05a6.79,6.79,0,0,1-1.69-4.8,6.94,6.94,0,0,1,1.64-4.8,5.69,5.69,0,0,1,4.39-1.8,5.61,5.61,0,0,1,4.36,1.75,6.94,6.94,0,0,1,1.59,4.84Zm-3-2.36a2.76,2.76,0,0,0-2.91-2.31,2.94,2.94,0,0,0-1,.16,3.13,3.13,0,0,0-.84.46,2.83,2.83,0,0,0-.64.73,3.2,3.2,0,0,0-.41,1Z"/><path d="M170.13,10.53v3.84a7,7,0,0,0-1.77-1.66,3.43,3.43,0,0,0-1.81-.46,3.53,3.53,0,0,0-2.7,1.14,4,4,0,0,0-1.08,2.86,4,4,0,0,0,1,2.88,3.47,3.47,0,0,0,2.68,1.13,3.65,3.65,0,0,0,1.83-.45,7.38,7.38,0,0,0,1.81-1.69v3.81a7.53,7.53,0,0,1-3.51.91A6.71,6.71,0,0,1,161.77,21a6.26,6.26,0,0,1-2-4.68,6.34,6.34,0,0,1,2-4.72,6.69,6.69,0,0,1,4.85-1.92A7.26,7.26,0,0,1,170.13,10.53Z"/><path d="M182.13,10H185V22.48h-2.9V21.17A5.54,5.54,0,0,1,174,21a7,7,0,0,1-1.68-4.77A6.75,6.75,0,0,1,174,11.52a5.42,5.42,0,0,1,4.21-1.87,5.31,5.31,0,0,1,3.91,1.79Zm-6.85,6.21a4.34,4.34,0,0,0,1,2.92,3.16,3.16,0,0,0,2.49,1.14,3.29,3.29,0,0,0,2.59-1.1,4.27,4.27,0,0,0,1-2.9,4.23,4.23,0,0,0-1-2.89,3.24,3.24,0,0,0-2.56-1.12,3.18,3.18,0,0,0-2.49,1.13A4.15,4.15,0,0,0,175.28,16.2Z"/><path d="M72.19,49.81V28.66L86.63,43.77V30h3V51L75.18,36V49.81Z"/><path d="M103.27,37.32h2.9V49.81h-2.9V48.5a5.52,5.52,0,0,1-8.11-.21,6.94,6.94,0,0,1-1.68-4.76,6.72,6.72,0,0,1,1.68-4.68A5.41,5.41,0,0,1,99.36,37a5.29,5.29,0,0,1,3.91,1.8Zm-6.84,6.21a4.34,4.34,0,0,0,1,2.92,3.16,3.16,0,0,0,2.49,1.14,3.33,3.33,0,0,0,2.59-1.1,4.74,4.74,0,0,0,0-5.8,3.27,3.27,0,0,0-2.57-1.11,3.14,3.14,0,0,0-2.48,1.13A4.13,4.13,0,0,0,96.43,43.53Z"/><path d="M119.53,37.86v3.83A7,7,0,0,0,117.77,40a3.46,3.46,0,0,0-1.81-.46,3.57,3.57,0,0,0-2.71,1.14,4,4,0,0,0-1.08,2.86,4.09,4.09,0,0,0,1,2.88,3.48,3.48,0,0,0,2.68,1.13,3.65,3.65,0,0,0,1.83-.45,7,7,0,0,0,1.81-1.69v3.81a7.65,7.65,0,0,1-3.51.91,6.73,6.73,0,0,1-4.85-1.88,6.22,6.22,0,0,1-2-4.67,6.31,6.31,0,0,1,2-4.72A6.66,6.66,0,0,1,116.05,37,7.21,7.21,0,0,1,119.53,37.86Z"/><path d="M121.89,32.13a1.88,1.88,0,0,1,3.21-1.31,1.77,1.77,0,0,1,.55,1.32A1.9,1.9,0,0,1,123.78,34a1.89,1.89,0,0,1-1.89-1.9Zm3.32,5.19V49.81h-2.88V37.32Z"/><path d="M128.28,43.48a6.22,6.22,0,0,1,1.93-4.61,6.84,6.84,0,0,1,9.47,0,6.38,6.38,0,0,1,1.92,4.7,6.28,6.28,0,0,1-1.94,4.7,6.59,6.59,0,0,1-4.78,1.89,6.31,6.31,0,0,1-4.7-1.93A6.43,6.43,0,0,1,128.28,43.48Zm2.95.05a4.21,4.21,0,0,0,1,3,3.89,3.89,0,0,0,5.41,0,4.7,4.7,0,0,0,0-5.82,3.85,3.85,0,0,0-5.39,0A4,4,0,0,0,131.23,43.53Z"/><path d="M144.65,37.32h2.9v1.15A4.78,4.78,0,0,1,151,37a4.3,4.3,0,0,1,3.4,1.38,5.6,5.6,0,0,1,1,3.81v7.65h-2.9v-7a4.59,4.59,0,0,0-.51-2.55,2.06,2.06,0,0,0-1.82-.71,2.22,2.22,0,0,0-2,.94,6.57,6.57,0,0,0-.59,3.27v6h-2.9Z"/><path d="M168.26,37.32h2.9V49.81h-2.9V48.5a5.53,5.53,0,0,1-8.12-.21,6.94,6.94,0,0,1-1.68-4.76,6.72,6.72,0,0,1,1.68-4.68A5.42,5.42,0,0,1,164.35,37a5.32,5.32,0,0,1,3.91,1.8Zm-6.85,6.21a4.34,4.34,0,0,0,1,2.92,3.16,3.16,0,0,0,2.49,1.14,3.33,3.33,0,0,0,2.59-1.1,4.74,4.74,0,0,0,0-5.8,3.27,3.27,0,0,0-2.56-1.11,3.18,3.18,0,0,0-2.49,1.13A4.13,4.13,0,0,0,161.41,43.53Z"/><path d="M177.68,28.15V49.81H174.8V28.15Z"/><path d="M191.09,27.62h1.84V41.4h-1.84v-.83a3.41,3.41,0,0,1-2.46,1.06,3.53,3.53,0,0,1-2.71-1.19,4.44,4.44,0,0,1-1.06-3,4.31,4.31,0,0,1,1.06-3,3.42,3.42,0,0,1,2.67-1.2,3.37,3.37,0,0,1,2.5,1.15Zm-4.36,9.78a2.81,2.81,0,0,0,.61,1.86,2,2,0,0,0,1.59.73,2.1,2.1,0,0,0,1.65-.7,3.06,3.06,0,0,0,0-3.69,2.11,2.11,0,0,0-1.64-.71,2,2,0,0,0-1.58.72A2.63,2.63,0,0,0,186.73,37.4Z"/><path d="M202.49,37.86h-5.7a2.42,2.42,0,0,0,.64,1.56,1.94,1.94,0,0,0,1.44.57,1.88,1.88,0,0,0,1.14-.33,4.63,4.63,0,0,0,1-1.21l1.55.87a5.92,5.92,0,0,1-.76,1,4.07,4.07,0,0,1-.85.72,3.91,3.91,0,0,1-1,.41,5.19,5.19,0,0,1-1.15.13A3.75,3.75,0,0,1,196,40.49a4.29,4.29,0,0,1-1.07-3.06,4.39,4.39,0,0,1,1-3,3.62,3.62,0,0,1,2.79-1.15,3.56,3.56,0,0,1,2.77,1.12,4.39,4.39,0,0,1,1,3.08Zm-1.89-1.5a1.75,1.75,0,0,0-1.85-1.47,1.89,1.89,0,0,0-.63.1,2.1,2.1,0,0,0-.53.29,1.85,1.85,0,0,0-.41.47,1.76,1.76,0,0,0-.26.61Z"/><path d="M86.82,58.4v3.53a8.29,8.29,0,0,0-5.36-2.17A6.84,6.84,0,0,0,76.32,62a7.39,7.39,0,0,0-2.1,5.33,7.23,7.23,0,0,0,2.1,5.26,6.94,6.94,0,0,0,5.16,2.14,6.38,6.38,0,0,0,2.68-.51,7.74,7.74,0,0,0,1.27-.7,15.39,15.39,0,0,0,1.39-1V76a10.75,10.75,0,0,1-5.38,1.46,10,10,0,0,1-7.25-3,9.85,9.85,0,0,1-3-7.21,10.18,10.18,0,0,1,2.5-6.75A10.32,10.32,0,0,1,86.82,58.4Z"/><path d="M89.45,70.8a6.22,6.22,0,0,1,1.94-4.6,6.82,6.82,0,0,1,9.46,0,6.38,6.38,0,0,1,1.92,4.7,6.31,6.31,0,0,1-1.93,4.7,6.62,6.62,0,0,1-4.79,1.89,6.32,6.32,0,0,1-4.7-1.93A6.44,6.44,0,0,1,89.45,70.8Zm3,.06a4.21,4.21,0,0,0,1,3,3.54,3.54,0,0,0,2.71,1.1,3.48,3.48,0,0,0,2.7-1.09,4.7,4.7,0,0,0,0-5.82,3.84,3.84,0,0,0-5.38,0A4,4,0,0,0,92.4,70.86Z"/><path d="M108.71,55.48V77.14h-2.88V55.48Z"/><path d="M111.78,70.8a6.21,6.21,0,0,1,1.93-4.6,6.82,6.82,0,0,1,9.46,0,6.68,6.68,0,0,1,0,9.4,6.6,6.6,0,0,1-4.78,1.89,6.34,6.34,0,0,1-4.71-1.93A6.47,6.47,0,0,1,111.78,70.8Zm2.94.06a4.26,4.26,0,0,0,1,3,3.56,3.56,0,0,0,2.71,1.1,3.52,3.52,0,0,0,2.71-1.09,4.7,4.7,0,0,0,0-5.82,3.52,3.52,0,0,0-2.71-1.1,3.47,3.47,0,0,0-2.68,1.1A4,4,0,0,0,114.72,70.86Z"/><path d="M128.15,64.65H131V65.8a6.36,6.36,0,0,1,1.43-1.18A3.5,3.5,0,0,1,134,64.3a3.82,3.82,0,0,1,3.34,1.85,4.34,4.34,0,0,1,3.68-1.85q4.22,0,4.22,5.12v7.72h-2.9V70.2a5.38,5.38,0,0,0-.43-2.54,1.59,1.59,0,0,0-1.48-.75,1.9,1.9,0,0,0-1.74.9,5.77,5.77,0,0,0-.54,2.88v6.45h-2.9v-6.9q0-3.33-1.92-3.33a1.93,1.93,0,0,0-1.78.91,5.69,5.69,0,0,0-.56,2.87v6.45h-2.88Z"/><path d="M151.81,55.48V66.1a5.31,5.31,0,0,1,3.92-1.8,5.42,5.42,0,0,1,4.21,1.89,6.77,6.77,0,0,1,1.68,4.67,6.88,6.88,0,0,1-1.7,4.77,5.44,5.44,0,0,1-4.24,1.87,5.38,5.38,0,0,1-3.87-1.67v1.31h-2.89V55.48ZM158.67,71a4.31,4.31,0,0,0-1-2.92,3.11,3.11,0,0,0-2.47-1.15A3.32,3.32,0,0,0,152.63,68a4.75,4.75,0,0,0,0,5.78,3.24,3.24,0,0,0,2.57,1.12,3.17,3.17,0,0,0,2.49-1.12A4.12,4.12,0,0,0,158.67,71Z"/><path d="M164.23,59.45a1.88,1.88,0,1,1,3.21,1.35,1.77,1.77,0,0,1-1.32.55,1.81,1.81,0,0,1-1.34-.55A1.84,1.84,0,0,1,164.23,59.45Zm3.32,5.2V77.14h-2.88V64.65Z"/><path d="M180.41,64.65h2.9V77.14h-2.9V75.83a5.53,5.53,0,0,1-8.11-.2,7,7,0,0,1-1.68-4.77,6.72,6.72,0,0,1,1.68-4.68,5.41,5.41,0,0,1,4.2-1.88,5.29,5.29,0,0,1,3.91,1.8Zm-6.84,6.21a4.35,4.35,0,0,0,1,2.92A3.14,3.14,0,0,0,177,74.92a3.31,3.31,0,0,0,2.59-1.1,4.74,4.74,0,0,0,0-5.8A3.25,3.25,0,0,0,177,66.91,3.2,3.2,0,0,0,174.55,68,4.19,4.19,0,0,0,173.57,70.86Z"/></g></g></svg>