<svg xmlns="http://www.w3.org/2000/svg" viewBox="0 0 647.49 63.36"><defs><style>.cls-1{fill:#000e2f;}</style></defs><g id="Capa_2" data-name="Capa 2"><g id="Blue"><path class="cls-1" d="M350.72,15.35V2.09h5.11V15.22c0,3.78,1.89,5.74,5,5.74s5-1.89,5-5.58V2.09h5.1v13.1c0,7-3.94,10.47-10.17,10.47S350.72,22.18,350.72,15.35Z"/><path class="cls-1" d="M379.46,2.09h4.71L395,16.38V2.09h5V25.3h-4.35L384.5,10.54V25.3h-5Z"/><path class="cls-1" d="M409.2,2.09h5.1V25.3h-5.1Z"/><path class="cls-1" d="M421.43,2.09h5.64l6.06,16.35L439.2,2.09h5.51l-9.39,23.37h-4.51Z"/><path class="cls-1" d="M451.5,2.09H469V6.63H456.57v4.71h10.94v4.54H456.57v4.88h12.6V25.3H451.5Z"/><path class="cls-1" d="M477,2.09h10.61a9.28,9.28,0,0,1,6.77,2.35,7.32,7.32,0,0,1,2,5.31v.07a7.21,7.21,0,0,1-5,7.19l5.67,8.29h-6l-5-7.43h-4V25.3H477ZM487.3,13.36c2.49,0,3.91-1.32,3.91-3.28V10c0-2.18-1.52-3.31-4-3.31h-5.07v6.66Z"/><path class="cls-1" d="M502.72,21.92l3-3.62a10.63,10.63,0,0,0,6.93,2.82c2.09,0,3.35-.83,3.35-2.19v-.06c0-1.3-.79-2-4.67-3-4.68-1.2-7.69-2.49-7.69-7.1V8.75c0-4.21,3.38-7,8.12-7a13.45,13.45,0,0,1,8.62,3l-2.65,3.85a10.88,10.88,0,0,0-6-2.29c-1.95,0-3,.89-3,2v.07c0,1.52,1,2,5,3.05,4.71,1.22,7.36,2.91,7.36,7v.07c0,4.6-3.51,7.19-8.52,7.19A14.78,14.78,0,0,1,502.72,21.92Z"/><path class="cls-1" d="M529.07,2.09h5.11V25.3h-5.11Z"/><path class="cls-1" d="M548.7,6.8h-7.06V2.09h19.22V6.8H553.8V25.3h-5.1Z"/><path class="cls-1" d="M574.62,16.15,565.7,2.09h6l5.54,9.32,5.63-9.32h5.81l-8.92,14V25.3h-5.11Z"/><path class="cls-1" d="M597.43,13.76v-.07a12.34,12.34,0,0,1,24.66-.06v.06a12.34,12.34,0,0,1-24.66.07Zm19.32,0v-.07a7,7,0,0,0-7-7.29,7,7,0,0,0-7,7.23v.06a7.06,7.06,0,0,0,7,7.3A6.93,6.93,0,0,0,616.75,13.76Z"/><path class="cls-1" d="M629.82,2.09h17.67V6.73H634.92v4.94H646v4.64H634.92v9h-5.1Z"/><path class="cls-1" d="M350.91,49.09V49a12.23,12.23,0,0,1,12.54-12.45,12.41,12.41,0,0,1,9.49,3.72l-3.37,3.88a8.9,8.9,0,0,0-6.15-2.72c-4.06,0-7,3.37-7,7.5V49c0,4.12,2.85,7.56,7,7.56,2.75,0,4.43-1.1,6.32-2.82l3.37,3.4a12.27,12.27,0,0,1-9.86,4.3A12.14,12.14,0,0,1,350.91,49.09Z"/><path class="cls-1" d="M379.3,49.09V49A12.8,12.8,0,0,1,404.88,49V49a12.8,12.8,0,0,1-25.58.06Zm20,0V49a7.31,7.31,0,0,0-7.29-7.57,7.19,7.19,0,0,0-7.21,7.5V49a7.31,7.31,0,0,0,7.29,7.56A7.19,7.19,0,0,0,399.34,49.09Z"/><path class="cls-1" d="M412.55,37h4.88L428.7,51.81V37h5.22V61.06h-4.5l-11.65-15.3v15.3h-5.22Z"/><path class="cls-1" d="M443.24,37h4.89L459.4,51.81V37h5.22V61.06h-4.5l-11.65-15.3v15.3h-5.23Z"/><path class="cls-1" d="M473.94,37h18.15v4.7H479.2v4.88h11.35V51.3H479.2v5.05h13.07v4.71H473.94Z"/><path class="cls-1" d="M499.45,49.09V49A12.24,12.24,0,0,1,512,36.58a12.41,12.41,0,0,1,9.48,3.72l-3.36,3.88A8.92,8.92,0,0,0,512,41.46c-4,0-7,3.37-7,7.5V49c0,4.12,2.85,7.56,7,7.56,2.75,0,4.44-1.1,6.33-2.82l3.37,3.4a12.31,12.31,0,0,1-9.87,4.3A12.14,12.14,0,0,1,499.45,49.09Z"/><path class="cls-1" d="M534.86,41.88h-7.32V37h19.93v4.88h-7.32V61.06h-5.29Z"/><path class="cls-1" d="M555.31,37h5.3V61.06h-5.3Z"/><path class="cls-1" d="M569.1,49.09V49a12.24,12.24,0,0,1,12.55-12.45,12.43,12.43,0,0,1,9.49,3.72l-3.37,3.88a8.92,8.92,0,0,0-6.16-2.72c-4.05,0-7,3.37-7,7.5V49c0,4.12,2.86,7.56,7,7.56,2.75,0,4.44-1.1,6.33-2.82l3.37,3.4a12.31,12.31,0,0,1-9.87,4.3A12.14,12.14,0,0,1,569.1,49.09Z"/><path class="cls-1" d="M598.7,50.75V37H604V50.61c0,3.92,2,6,5.19,6s5.19-2,5.19-5.78V37h5.3V50.57c0,7.29-4.09,10.87-10.55,10.87S598.7,57.83,598.7,50.75Z"/><path class="cls-1" d="M634.21,41.88h-7.32V37h19.94v4.88h-7.32V61.06h-5.3Z"/><rect class="cls-1" x="324.82" y="1.69" width="4.09" height="59.78"/><path class="cls-1" d="M40.12,49.8C36,51,31.83,52.49,26.74,52.49S17.46,51,13.38,49.8V1.69H0V56.48a53,53,0,0,0,26.74,6.88,53.25,53.25,0,0,0,26.75-6.88V1.69H40.12Z"/><path class="cls-1" d="M102.71,13.47v8.88h13.37V6.79A52.88,52.88,0,0,0,89.34,0,52.77,52.77,0,0,0,62.7,6.79V56.58a53.77,53.77,0,0,0,26.64,6.69,53.88,53.88,0,0,0,26.74-6.69V38.42H102.71V49.8a45.7,45.7,0,0,1-13.37,1.89A45.05,45.05,0,0,1,76.07,49.8V13.47a44.71,44.71,0,0,1,13.27-1.9A45.35,45.35,0,0,1,102.71,13.47Z"/><path class="cls-1" d="M125.55,6.69V56.58a54,54,0,0,0,26.75,6.69A54.16,54.16,0,0,0,179,56.58V6.69a56.81,56.81,0,0,0-53.49,0ZM165.68,49.8a46.38,46.38,0,0,1-13.38,1.89,46.31,46.31,0,0,1-13.37-1.89V13.47a42.8,42.8,0,0,1,13.37-1.9,46,46,0,0,1,13.38,1.9Z"/><polygon class="cls-1" points="228.89 44.1 228.59 44.1 202.04 1.69 187.78 1.69 187.78 61.47 199.85 61.47 199.85 19.06 200.25 19.06 226.79 61.47 241.06 61.47 241.06 1.69 228.89 1.69 228.89 44.1"/><polygon class="cls-1" points="290.84 44.1 290.54 44.1 264 1.69 249.73 1.69 249.73 61.47 261.81 61.47 261.81 19.06 262.2 19.06 288.74 61.47 303.02 61.47 303.02 1.69 290.84 1.69 290.84 44.1"/></g></g></svg>