<svg xmlns="http://www.w3.org/2000/svg" viewBox="0 0 621.49 79.71"><defs><style>.cls-1{fill:none;stroke:#000;stroke-width:1.84px;}</style></defs><g id="Capa_2" data-name="Capa 2"><g id="Capa_1-2" data-name="Capa 1"><path d="M48.6,55.41A41.62,41.62,0,0,1,26.76,62a16,16,0,0,1-.18-3.86c.12-2.45,1.45-1.76,2.42-3.7a16,16,0,0,0,1.2-2.83c0-.07-.64-11.79-.81-16.76-.09-2.68-.59-7.16-1.18-11.51-.35-2.58-1.14-4.62-1.5-7.06-.52-3.54-1.13-7.53-1.13-7.53a79.13,79.13,0,0,0-1.69,10.09c-.3,2.28-.6,4.69-.88,6.94-.6,4.76-2.09,17.5-2.31,18.2-.34,1-.38-.28-.38-.28s.88-13.37,1.15-19.23c.13-2.87.35-6,.7-9A61.33,61.33,0,0,1,23.24,9s1.53-4.63,2-4.72,2.25,2.91,2.85,5.59c1.35,6,2.15,6.81,3.18,13.16,1,6,1.87,11.07,2,11.9a73.89,73.89,0,0,1-.53,16,3,3,0,0,1-.9,2.05c-1.55,1.57-2.65,3.44-2.65,4.67s-.21,1.2.08,1.91c0,0,2,3.07,13.82-4a7.32,7.32,0,0,0,3.68-6.18v-43S35.11,2.52,26.12,2.52,5.88,6.45,5.88,6.45V49.28c0,2.63.38,7.58,4.14,9.26,0,0-10-3.43-10-9.31V2.82S15.3,0,26.12,0s26.4,2.82,26.4,2.82V49.28c0,4-3.92,6.13-3.92,6.13Z"/><path d="M194,19.47a9,9,0,0,1-4.31.89,5.49,5.49,0,0,1-4.25-1.65,6.58,6.58,0,0,1-1.51-4.62,7.05,7.05,0,0,1,1.51-4.75,4.93,4.93,0,0,1,3.91-1.7,6.36,6.36,0,0,1,1.86.24v-5H194V19.47Zm-2.79-1.18V9.39A4.33,4.33,0,0,0,190,9.23c-2.18,0-3.26,1.57-3.26,4.7s1,4.64,3,4.64a2.76,2.76,0,0,0,1.45-.28Z"/><path d="M206.77,13.87,199.19,15q.34,3.44,3.38,3.43a6.83,6.83,0,0,0,3.12-.67l.67,1.76a8.47,8.47,0,0,1-4.09.87,5.44,5.44,0,0,1-4.2-1.67,6.84,6.84,0,0,1-1.54-4.77,7.08,7.08,0,0,1,1.41-4.69,4.77,4.77,0,0,1,3.87-1.69,4.54,4.54,0,0,1,3.77,1.62,7.1,7.1,0,0,1,1.19,4.71Zm-2.62-1.1q0-3.51-2.43-3.51a2.23,2.23,0,0,0-2,1,5.66,5.66,0,0,0-.71,3.26l5.12-.78Z"/><polygon points="66 53.13 61.61 53.13 61.61 25.99 66 25.99 66 53.13 66 53.13"/><path d="M86.25,43.45a11.74,11.74,0,0,1-2,7.16,7.88,7.88,0,0,1-12.16,0,11.74,11.74,0,0,1-2-7.16,11.79,11.79,0,0,1,2-7.19,7.16,7.16,0,0,1,6.08-2.88,7.09,7.09,0,0,1,6.08,2.88,11.79,11.79,0,0,1,2,7.19Zm-4.36,0c0-4.84-1.23-7.27-3.7-7.27s-3.7,2.43-3.7,7.27,1.23,7.08,3.7,7.08,3.7-2.36,3.7-7.08Z"/><path d="M101.3,47.55a5.47,5.47,0,0,1-1.91,4.18,7.21,7.21,0,0,1-5,1.72A9.33,9.33,0,0,1,89,52.05l1.15-2.8a5.67,5.67,0,0,0,3.63,1.11A3,3,0,0,0,96,49.59a2.53,2.53,0,0,0,.83-2,2.7,2.7,0,0,0-.64-1.92A5.73,5.73,0,0,0,94,44.43q-4.42-1.7-4.42-5.43a5.29,5.29,0,0,1,1.71-4,6.15,6.15,0,0,1,4.43-1.62,9,9,0,0,1,5,1.37l-1.08,2.56a4.73,4.73,0,0,0-3.09-1.09,2.75,2.75,0,0,0-2,.74,2.47,2.47,0,0,0-.73,1.82c0,1.27,1,2.29,2.87,3q4.64,1.88,4.64,5.72Z"/><path d="M133.68,53.13h-5.12l-2.07-6.92h-8.68l-2.15,6.92H111.2l8.91-26.9h4.7l8.87,26.9Zm-7.9-9.81L123,33.85a18.74,18.74,0,0,1-.71-3.25h-.07c-.13.7-.38,1.78-.75,3.25l-2.89,9.47Z"/><path d="M151.73,53.13h-4.39V39.39q0-3.24-3.48-3.24a8.16,8.16,0,0,0-3,.54V53.13h-4.39V34.79A17.8,17.8,0,0,1,144,33.38q4.07,0,6,1.8a5.27,5.27,0,0,1,1.69,4.14V53.13Z"/><path d="M171.52,52.08a13.85,13.85,0,0,1-6.76,1.4,8.56,8.56,0,0,1-6.66-2.59q-2.39-2.58-2.38-7.22a11,11,0,0,1,2.38-7.45,7.69,7.69,0,0,1,6.12-2.66,10.37,10.37,0,0,1,2.91.36V26.08h4.39v26Zm-4.39-1.83v-14a6.81,6.81,0,0,0-1.94-.25q-5.12,0-5.11,7.37t4.79,7.26a4.41,4.41,0,0,0,2.26-.43Z"/><path d="M191.49,43.31,179.62,45c.36,3.6,2.12,5.39,5.29,5.39a10.49,10.49,0,0,0,4.89-1.07l1,2.76a13.21,13.21,0,0,1-6.4,1.36,8.49,8.49,0,0,1-6.58-2.62c-1.6-1.75-2.41-4.24-2.41-7.48s.74-5.59,2.21-7.35a7.51,7.51,0,0,1,6.06-2.65,7.09,7.09,0,0,1,5.9,2.54c1.34,1.69,2,4.16,1.87,7.39Zm-4.11-1.72q0-5.51-3.81-5.51a3.49,3.49,0,0,0-3.09,1.62,8.88,8.88,0,0,0-1.12,5.11l8-1.22Z"/><path d="M206.58,47.55a5.46,5.46,0,0,1-1.9,4.18,7.24,7.24,0,0,1-5,1.72,9.38,9.38,0,0,1-5.36-1.4l1.15-2.8a5.7,5.7,0,0,0,3.64,1.11,3,3,0,0,0,2.16-.77,2.57,2.57,0,0,0,.83-2,2.7,2.7,0,0,0-.65-1.92,5.6,5.6,0,0,0-2.19-1.28q-4.42-1.7-4.43-5.43a5.29,5.29,0,0,1,1.71-4A6.19,6.19,0,0,1,201,33.38a9,9,0,0,1,5,1.37l-1.08,2.56a4.68,4.68,0,0,0-3.08-1.09,2.74,2.74,0,0,0-2,.74,2.48,2.48,0,0,0-.74,1.82c0,1.27,1,2.29,2.88,3q4.63,1.88,4.63,5.72Z"/><path d="M84.77,20.18H82V11.41q0-2.07-2.22-2.07a5.18,5.18,0,0,0-1.93.35V20.18H75V8.47a11.45,11.45,0,0,1,4.83-.89,5.5,5.5,0,0,1,3.83,1.14,3.38,3.38,0,0,1,1.08,2.64v8.82Z"/><path d="M90.8,4.29a1.26,1.26,0,0,1-.45,1,1.69,1.69,0,0,1-2.18,0,1.26,1.26,0,0,1-.45-1,1.28,1.28,0,0,1,.45-1,1.53,1.53,0,0,1,1.09-.41,1.56,1.56,0,0,1,1.09.4,1.27,1.27,0,0,1,.45,1Zm-.15,15.89h-2.8V7.8h2.8V20.18Z"/><path d="M103.39,7.8l-4,12.38H96.76l-4-12.38h3l2.18,8a7.81,7.81,0,0,1,.3,1.7h0c.07-.45.18-1,.32-1.7l2.22-8Z"/><path d="M115.11,13.9,107.54,15c.23,2.3,1.35,3.44,3.37,3.44a6.84,6.84,0,0,0,3.13-.67l.66,1.76a8.42,8.42,0,0,1-4.08.87,5.46,5.46,0,0,1-4.21-1.67A6.85,6.85,0,0,1,104.88,14a7.12,7.12,0,0,1,1.41-4.69,4.78,4.78,0,0,1,3.87-1.68,4.54,4.54,0,0,1,3.76,1.61,7.08,7.08,0,0,1,1.19,4.71Zm-2.61-1.09c0-2.34-.81-3.51-2.44-3.51a2.22,2.22,0,0,0-2,1,5.58,5.58,0,0,0-.72,3.26l5.13-.78Z"/><path d="M123.62,7.59l-.55,2.05a4.05,4.05,0,0,0-1.29-.21,2.64,2.64,0,0,0-1.33.3V20.18h-2.8V8.46a13.47,13.47,0,0,1,6-.87Z"/><path d="M132.54,16.62a3.43,3.43,0,0,1-1.22,2.66,4.54,4.54,0,0,1-3.19,1.11,5.91,5.91,0,0,1-3.42-.9l.74-1.79a3.6,3.6,0,0,0,2.31.71,1.93,1.93,0,0,0,1.38-.49,1.65,1.65,0,0,0,.53-1.25,1.77,1.77,0,0,0-.41-1.23,3.7,3.7,0,0,0-1.4-.82Q125,13.54,125,11.16a3.37,3.37,0,0,1,1.09-2.55,3.93,3.93,0,0,1,2.83-1,5.75,5.75,0,0,1,3.21.87l-.69,1.63a3,3,0,0,0-2-.69,1.75,1.75,0,0,0-1.3.47,1.58,1.58,0,0,0-.47,1.16c0,.81.61,1.46,1.84,2q3,1.18,3,3.65Z"/><path d="M138,4.29a1.28,1.28,0,0,1-.44,1,1.58,1.58,0,0,1-1.09.4,1.55,1.55,0,0,1-1.09-.4,1.26,1.26,0,0,1-.45-1,1.28,1.28,0,0,1,.45-1,1.51,1.51,0,0,1,1.09-.41,1.58,1.58,0,0,1,1.09.4,1.3,1.3,0,0,1,.44,1Zm-.14,15.89h-2.8V7.8h2.8V20.18Z"/><path d="M150.58,19.51a9,9,0,0,1-4.32.89A5.46,5.46,0,0,1,142,18.75a6.58,6.58,0,0,1-1.52-4.62A7.05,7.05,0,0,1,142,9.38a4.91,4.91,0,0,1,3.9-1.7,6.36,6.36,0,0,1,1.86.24v-5h2.8V19.51Zm-2.8-1.18V9.43a4.33,4.33,0,0,0-1.24-.16c-2.17,0-3.26,1.56-3.26,4.7s1,4.64,3.06,4.64a2.84,2.84,0,0,0,1.44-.28Z"/><path d="M162.49,19.51a9.62,9.62,0,0,1-4.47.89q-5.06,0-5.05-3.76a3.62,3.62,0,0,1,2-3.37,13.28,13.28,0,0,1,4.87-1.19v-.67q0-2-2.46-2a7.13,7.13,0,0,0-3.1.75l-.64-1.6a9.53,9.53,0,0,1,4.25-.94q4.56,0,4.56,4.26v7.67Zm-2.61-1V13.4a8.32,8.32,0,0,0-3.12.85,2.51,2.51,0,0,0-1.14,2.3c0,1.53.86,2.3,2.58,2.3a3.73,3.73,0,0,0,1.68-.35Z"/><path d="M175.09,19.51a9,9,0,0,1-4.31.89,5.49,5.49,0,0,1-4.25-1.65A6.58,6.58,0,0,1,165,14.13a7.05,7.05,0,0,1,1.51-4.75,4.92,4.92,0,0,1,3.91-1.7,6.36,6.36,0,0,1,1.86.24v-5h2.79V19.51Zm-2.79-1.18V9.43a4.33,4.33,0,0,0-1.24-.16c-2.17,0-3.26,1.56-3.26,4.7s1,4.64,3,4.64a2.88,2.88,0,0,0,1.45-.28Z"/><path d="M61.57,3h3v13.3c0,1.47.79,2.2,2.36,2.2a5.42,5.42,0,0,0,2-.37V3h3V19.37a12,12,0,0,1-5.15,1,5.86,5.86,0,0,1-4.07-1.22,3.6,3.6,0,0,1-1.15-2.81V3Z"/><path d="M149.05,78.82a4.63,4.63,0,0,1-6.31-1.37,9.26,9.26,0,0,1,0-8.66,4.11,4.11,0,0,1,3.71-2.08,4.37,4.37,0,0,1,2.57.69l-.5,1.38a3.09,3.09,0,0,0-1.62-.43A2.45,2.45,0,0,0,144.59,70a7.76,7.76,0,0,0-.53,3.07,7.19,7.19,0,0,0,.57,3,2.43,2.43,0,0,0,2.3,1.66,2.93,2.93,0,0,0,1.57-.43l.55,1.48Z"/><path d="M157.37,74.85a5.55,5.55,0,0,1-.84,3.2,3.6,3.6,0,0,1-5.73,0,6.53,6.53,0,0,1,0-6.41,3.6,3.6,0,0,1,5.73,0,5.59,5.59,0,0,1,.84,3.21Zm-2,0c0-2.23-.57-3.34-1.7-3.34S152,72.6,152,74.83s.57,3.25,1.71,3.25,1.7-1.08,1.7-3.25Z"/><polygon points="161.31 79.31 159.28 79.31 159.28 66.77 161.31 66.77 161.31 79.31 161.31 79.31"/><path d="M170.62,74.85a5.48,5.48,0,0,1-.85,3.2,3.59,3.59,0,0,1-5.72,0,6.47,6.47,0,0,1,0-6.41,3.59,3.59,0,0,1,5.72,0,5.51,5.51,0,0,1,.85,3.21Zm-2,0c0-2.23-.56-3.34-1.7-3.34s-1.71,1.11-1.71,3.34.57,3.25,1.71,3.25,1.7-1.08,1.7-3.25Z"/><path d="M184.49,79.31h-2V73c0-1-.5-1.46-1.51-1.46a2,2,0,0,0-1.49.61v7.19h-2V72.93c0-1-.55-1.42-1.67-1.42a3.34,3.34,0,0,0-1.32.25v7.55h-2V70.86a7.68,7.68,0,0,1,3.34-.64,3.58,3.58,0,0,1,2.78,1,4.07,4.07,0,0,1,2.87-1,3.31,3.31,0,0,1,2.19.71,2.46,2.46,0,0,1,.87,2v6.36Z"/><path d="M193.91,74.64a5.29,5.29,0,0,1-1,3.46,4,4,0,0,1-3.28,1.37,5.38,5.38,0,0,1-3-.65v-12h2v3.84a4.18,4.18,0,0,1,1.75-.36,3.07,3.07,0,0,1,2.68,1.37,5.13,5.13,0,0,1,.83,3Zm-2,.12c0-2.21-.69-3.32-2.06-3.32a2.42,2.42,0,0,0-1.2.27v6.35a2.51,2.51,0,0,0,1,.19c1.49,0,2.24-1.17,2.24-3.49"/><path d="M197.92,67.85a.87.87,0,0,1-.34.71,1.21,1.21,0,0,1-1.55,0,.89.89,0,0,1-.33-.71.91.91,0,0,1,.33-.72,1.16,1.16,0,0,1,.78-.29,1.14,1.14,0,0,1,.77.28.9.9,0,0,1,.34.73Zm-.1,11.46h-2V70.38h2v8.93Z"/><path d="M206.49,78.82a6.73,6.73,0,0,1-3.23.65c-2.42,0-3.64-.9-3.64-2.71a2.71,2.71,0,0,1,1.74-2.57,10.53,10.53,0,0,1,3.24-.73V73q0-1.47-1.77-1.47a5.11,5.11,0,0,0-2.23.54l-.47-1.15a6.81,6.81,0,0,1,3.07-.68c2.19,0,3.29,1,3.29,3.08v5.52Zm-1.89-.72V74.42a6.46,6.46,0,0,0-2.09.51,1.84,1.84,0,0,0-1,1.76c0,1.1.62,1.66,1.88,1.66a2.74,2.74,0,0,0,1.21-.25Z"/><path d="M260.91,22.68h-4.3V8.4h4.3c4.29,0,7.55,2.71,7.55,7.14S265.2,22.68,260.91,22.68Zm0-12.56h-2.29V20.94h2.29a5.17,5.17,0,0,0,5.51-5.4A5.18,5.18,0,0,0,260.91,10.12Z"/><path d="M279.93,18.23h-7.57a3,3,0,0,0,3.16,3.12,5.42,5.42,0,0,0,3.25-1.14l.83,1.14a5.78,5.78,0,0,1-4.33,1.55c-2.91,0-4.92-2-4.92-5.15a4.88,4.88,0,0,1,5-5.09,4.49,4.49,0,0,1,4.65,4.7C280,17.73,279.93,18.23,279.93,18.23Zm-4.66-4.14a2.88,2.88,0,0,0-2.89,2.81h5.73A2.84,2.84,0,0,0,275.27,14.09Z"/><path d="M287.86,22.9a3.82,3.82,0,0,1-3.4-1.76l0,0v5.4h-2V12.85h1.9V14.4h0a4.17,4.17,0,0,1,3.5-1.74c2.89,0,4.74,2.17,4.74,5.09S290.77,22.9,287.86,22.9Zm-.38-8.62c-2,0-3.12,1.48-3.12,3.45s1.16,3.48,3.12,3.48,3.13-1.51,3.13-3.48S289.45,14.28,287.48,14.28Z"/><path d="M300.83,22.68l0-1.25a4,4,0,0,1-3.12,1.47,3.12,3.12,0,0,1-3.4-3c0-1.92,1.58-2.89,3.85-3l2.63-.1v-.39a2.16,2.16,0,0,0-2.44-2.24,6,6,0,0,0-3,.85l-.6-1.33a7.6,7.6,0,0,1,3.68-1c2.88,0,4.31,1.45,4.31,4.31v5.71Zm-2.34-4.58c-1.59.09-2.23.77-2.23,1.7s.72,1.7,2,1.7a3.08,3.08,0,0,0,2.5-1.43V18Z"/><path d="M311.08,14.67H311a2.61,2.61,0,0,0-1.07-.21c-1.78,0-2.22,1.88-2.22,3.31v4.91h-2V12.85h2l0,1.51h.06a2.57,2.57,0,0,1,2.42-1.7,2.7,2.7,0,0,1,1,.17Z"/><path d="M316,22.9c-2.46,0-2.58-2-2.58-3.95V14.46H312V12.87h1.45V9.93h2v2.94h2.36v1.59h-2.36v4.45a3.81,3.81,0,0,0,.25,1.8,1,1,0,0,0,1,.5,2.4,2.4,0,0,0,1-.23l.12,1.59A4.38,4.38,0,0,1,316,22.9Z"/><path d="M325.62,22.68l0-1.25a4,4,0,0,1-3.12,1.47,3.12,3.12,0,0,1-3.4-3c0-1.92,1.58-2.89,3.85-3l2.63-.1v-.39a2.16,2.16,0,0,0-2.44-2.24,6,6,0,0,0-3,.85l-.6-1.33a7.64,7.64,0,0,1,3.68-1c2.88,0,4.31,1.45,4.31,4.31v5.71Zm-2.33-4.58c-1.6.09-2.24.77-2.24,1.7s.72,1.7,2,1.7a3.08,3.08,0,0,0,2.5-1.43V18Z"/><path d="M342.78,22.68V16.94c0-1.13-.21-2.64-1.8-2.64s-2.36,1.51-2.36,3.27v5.11h-2V16.94c0-1.44-.35-2.64-1.78-2.64s-2.36,1.51-2.36,3.27v5.11h-2V12.85h2l0,1.55h.07a3.24,3.24,0,0,1,2.83-1.74,2.84,2.84,0,0,1,2.92,1.95,3.42,3.42,0,0,1,3.12-1.95c2.63,0,3.33,1.93,3.33,4.06v6Z"/><path d="M356.73,18.23h-7.58a3,3,0,0,0,3.17,3.12,5.42,5.42,0,0,0,3.25-1.14l.83,1.14a5.78,5.78,0,0,1-4.33,1.55c-2.92,0-4.92-2-4.92-5.15a4.87,4.87,0,0,1,5-5.09,4.49,4.49,0,0,1,4.66,4.7C356.79,17.73,356.73,18.23,356.73,18.23Zm-4.66-4.14a2.9,2.9,0,0,0-2.9,2.81h5.74A2.84,2.84,0,0,0,352.07,14.09Z"/><path d="M365.73,22.68V17.19c0-1.65-.29-2.89-2.05-2.89s-2.52,1.55-2.52,3.43v4.95h-2V12.85h2l0,1.55h.06a3.31,3.31,0,0,1,3-1.74c2.79,0,3.52,1.84,3.52,4.2v5.82Z"/><path d="M373.76,22.9c-2.46,0-2.59-2-2.59-3.95V14.46h-1.45V12.87h1.45V9.93h2v2.94h2.36v1.59h-2.36v4.45a3.81,3.81,0,0,0,.25,1.8,1,1,0,0,0,1,.5,2.42,2.42,0,0,0,1-.23l.12,1.59A4.41,4.41,0,0,1,373.76,22.9Z"/><path d="M382.18,22.9A5,5,0,0,1,377,17.79a5.21,5.21,0,0,1,10.41,0A5,5,0,0,1,382.18,22.9Zm0-8.62A3.2,3.2,0,0,0,379,17.73a3.21,3.21,0,1,0,6.4,0A3.19,3.19,0,0,0,382.18,14.28Z"/><path d="M402,22.68V21.1h0a4,4,0,0,1-3.45,1.8c-2.92,0-4.78-2.23-4.78-5.15s1.86-5.09,4.74-5.09a4,4,0,0,1,3.43,1.72h0v-6h2V22.68Zm-3.12-8.4c-2,0-3.12,1.48-3.12,3.45s1.16,3.48,3.12,3.48S402,19.7,402,17.73,400.85,14.28,398.88,14.28Z"/><path d="M416.08,18.23H408.5a3,3,0,0,0,3.17,3.12,5.42,5.42,0,0,0,3.25-1.14l.83,1.14a5.78,5.78,0,0,1-4.33,1.55c-2.92,0-4.92-2-4.92-5.15a4.87,4.87,0,0,1,5-5.09,4.49,4.49,0,0,1,4.66,4.7C416.14,17.73,416.08,18.23,416.08,18.23Zm-4.66-4.14a2.88,2.88,0,0,0-2.89,2.81h5.73A2.84,2.84,0,0,0,411.42,14.09Z"/><path d="M432.08,22.68v-6h-5.73v6H423V8.4h3.35v5.52h5.73V8.4h3.35V22.68Z"/><path d="M439.94,11.3a1.73,1.73,0,1,1,1.89-1.72A1.72,1.72,0,0,1,439.94,11.3Zm-1.65,11.38V12.48h3.31v10.2Z"/><path d="M447.7,22.9a6.24,6.24,0,0,1-4.3-1.57l1.24-2a5.59,5.59,0,0,0,3,1.24c.83,0,1.41-.21,1.41-.87s-1.49-1-1.86-1.12c-1.7-.43-3.19-1-3.19-3.14s1.74-3.21,3.87-3.21a5.88,5.88,0,0,1,3.91,1.26l-1.07,2a5,5,0,0,0-2.57-1c-.79,0-1.22.21-1.22.75s.78.78,1.49,1c1.76.52,3.6,1.06,3.6,3.31C452,22,449.81,22.9,447.7,22.9Z"/><path d="M457.82,15v3.66c0,.89.07,1.51,1.08,1.51a3.12,3.12,0,0,0,1-.18l.17,2.58a8.66,8.66,0,0,1-2.36.33c-2.65,0-3.21-1.61-3.21-3.95V15H453V12.5h1.45V9.72h3.33V12.5h2.26V15Z"/><path d="M466.89,22.9c-3.23,0-5.67-2-5.67-5.29s2.44-5.32,5.67-5.32,5.65,2,5.65,5.32S470.12,22.9,466.89,22.9Zm0-8a2.36,2.36,0,0,0-2.32,2.65,2.34,2.34,0,1,0,4.64,0A2.37,2.37,0,0,0,466.89,14.9Z"/><path d="M481.27,15.52h-.15a2.55,2.55,0,0,0-1.2-.25c-1.63,0-2,1.53-2,2.87v4.54h-3.31V12.48h3.31l0,1.44h0a2.71,2.71,0,0,1,2.52-1.63,2.4,2.4,0,0,1,1,.19Z"/><path d="M484.68,11.3a1.73,1.73,0,1,1,1.89-1.72A1.72,1.72,0,0,1,484.68,11.3ZM483,22.68V12.48h3.31v10.2Z"/><path d="M495,22.68l-.06-1.08A3.83,3.83,0,0,1,492,22.9c-1.8,0-3.7-1-3.7-3.24s2.09-3.05,4-3.13l2.57-.1V16.2c0-1.08-.77-1.64-2.09-1.64a6.42,6.42,0,0,0-3.13.92l-.87-2.16a10.12,10.12,0,0,1,4.37-1c3.18,0,5,1.32,5,4.63v5.76Zm-1.76-4.39c-1,0-1.61.48-1.61,1.24s.64,1.26,1.55,1.26a2,2,0,0,0,1.7-.93V18.19Z"/><path d="M515.68,22.68l-1.4-1.54a6.66,6.66,0,0,1-4.58,1.78c-2.64,0-5-1.36-5-4.2,0-2,1.59-3.31,3.43-4.09a4.58,4.58,0,0,1-1.47-3.09c0-2.29,2.09-3.41,4.39-3.41s4.22,1.12,4.22,3.33a4.44,4.44,0,0,1-2.69,3.66l1.88,2.14a16.71,16.71,0,0,0,1.82-2.59L518.62,16a22,22,0,0,1-2.38,3.19l3.25,3.37v.17Zm-6.25-6.11a2.42,2.42,0,0,0-1.51,2.05,1.89,1.89,0,0,0,2,1.84,3.64,3.64,0,0,0,2.57-1.2l-2.65-2.92Zm1.68-6.23a1.25,1.25,0,0,0-1.39,1.27,2.12,2.12,0,0,0,.69,1.34l.47.52c.62-.39,1.58-1,1.58-1.91A1.19,1.19,0,0,0,511.11,10.34Z"/><path d="M532.49,22.9c-4,0-7.43-2.6-7.43-7.36s3.48-7.35,7.47-7.35a7.26,7.26,0,0,1,5.88,2.49l-2.22,1.92A4.74,4.74,0,0,0,532.53,11c-2.3,0-4.08,1.67-4.08,4.57s1.82,4.57,4.14,4.57,3-.91,3-.91V17.09h-3V14.54h6.27v5.92A8.39,8.39,0,0,1,532.49,22.9Z"/><path d="M551.36,18.37H544.1a2.34,2.34,0,0,0,2.61,2.13,5.78,5.78,0,0,0,3.06-1l1.3,1.72a6.74,6.74,0,0,1-4.84,1.65c-3.15,0-5.44-1.94-5.44-5.31s2.48-5.3,5.5-5.3a4.8,4.8,0,0,1,5.11,5C551.4,17.77,551.36,18.37,551.36,18.37Zm-5.13-3.93a2.08,2.08,0,0,0-2.11,2h4.2A2.06,2.06,0,0,0,546.23,14.44Z"/><path d="M558.42,22.9c-3.23,0-5.67-2-5.67-5.29s2.44-5.32,5.67-5.32,5.65,2,5.65,5.32S561.65,22.9,558.42,22.9Zm0-8a2.36,2.36,0,0,0-2.32,2.65,2.34,2.34,0,1,0,4.64,0A2.37,2.37,0,0,0,558.42,14.9Z"/><path d="M575.3,25a6.3,6.3,0,0,1-4.69,1.62,8.93,8.93,0,0,1-5-1.51L567,22.9a6.78,6.78,0,0,0,3.51,1.16c2,0,3-.83,3-2.83V20.9h-.05a3.81,3.81,0,0,1-3.2,1.44,4.7,4.7,0,0,1-4.82-5,4.71,4.71,0,0,1,4.82-5,3.82,3.82,0,0,1,3.22,1.49h.05l-.05-1.3h3.32v8.13C576.86,22.8,576.3,24.08,575.3,25Zm-4-10.13a2.33,2.33,0,0,0-2.4,2.46,2.39,2.39,0,1,0,4.78,0A2.31,2.31,0,0,0,571.27,14.88Z"/><path d="M586.21,15.52h-.14a2.58,2.58,0,0,0-1.2-.25c-1.64,0-2,1.53-2,2.87v4.54h-3.31V12.48h3.31l0,1.44h0a2.71,2.71,0,0,1,2.52-1.63,2.4,2.4,0,0,1,1,.19Z"/><path d="M593.6,22.68l-.06-1.08a3.85,3.85,0,0,1-2.92,1.3c-1.8,0-3.71-1-3.71-3.24s2.09-3.05,4-3.13l2.56-.1V16.2c0-1.08-.76-1.64-2.09-1.64a6.38,6.38,0,0,0-3.12.92l-.87-2.16a10.1,10.1,0,0,1,4.36-1c3.19,0,5,1.32,5,4.63v5.76Zm-1.76-4.39c-1,0-1.62.48-1.62,1.24s.65,1.26,1.56,1.26a2,2,0,0,0,1.69-.93V18.19Z"/><path d="M605.43,10.7a5,5,0,0,0-1.22-.19c-1,0-1.22.56-1.22,1.32v.67h2.2V15H603v7.68h-3.33V15h-1.3V12.5h1.3v-.56c0-2.44,1.16-3.81,3.68-3.81a9.11,9.11,0,0,1,2.26.27Z"/><path d="M608.75,11.4h-2.36l1.63-3h2.84Zm-2.36,11.28V12.48h3.31v10.2Z"/><path d="M618.33,22.68l-.07-1.08a3.8,3.8,0,0,1-2.91,1.3c-1.8,0-3.71-1-3.71-3.24s2.09-3.05,4-3.13l2.56-.1V16.2c0-1.08-.76-1.64-2.09-1.64a6.38,6.38,0,0,0-3.12.92l-.87-2.16a10.1,10.1,0,0,1,4.36-1c3.19,0,5,1.32,5,4.63v5.76Zm-1.76-4.39c-1,0-1.62.48-1.62,1.24s.64,1.26,1.56,1.26a2,2,0,0,0,1.69-.93V18.19Z"/><path d="M258.62,40v4.75h5.56V46.4h-5.56v6.17h-2V38.29h7.92V40Z"/><path d="M273.17,52.57l0-1.24A4.1,4.1,0,0,1,270,52.79a3.11,3.11,0,0,1-3.39-3c0-1.92,1.57-2.89,3.85-3l2.62-.1v-.39A2.16,2.16,0,0,0,270.66,44a6.07,6.07,0,0,0-3,.85l-.6-1.32a7.53,7.53,0,0,1,3.69-1c2.87,0,4.3,1.45,4.3,4.31v5.71ZM270.83,48c-1.59.09-2.24.77-2.24,1.7s.73,1.7,2,1.7A3.11,3.11,0,0,0,273.13,50V47.85Z"/><path d="M282.36,52.79a5.12,5.12,0,0,1,.06-10.24,4.78,4.78,0,0,1,3.8,1.41l-.7,1.45a3.88,3.88,0,0,0-2.94-1.2,3.18,3.18,0,0,0-3.18,3.39,3.19,3.19,0,0,0,3.18,3.5,4.15,4.15,0,0,0,3-1.24l.71,1.44A4.9,4.9,0,0,1,282.36,52.79Z"/><path d="M294.73,52.57l0-1.41a3.43,3.43,0,0,1-3,1.63c-2.73,0-3.46-1.73-3.46-4.18V42.72h2v5.81c0,1.35.29,2.61,2.05,2.61s2.44-1.49,2.44-3.15V42.72h2v9.85Z"/><path d="M299.91,52.57V38.29h2V52.57Z"/><path d="M308.1,52.79c-2.46,0-2.59-2-2.59-3.95V44.35h-1.45V42.76h1.45V39.82h2v2.94h2.36v1.59H307.5V48.8a3.81,3.81,0,0,0,.25,1.8,1,1,0,0,0,1,.5,2.42,2.42,0,0,0,1-.23l.12,1.59A4.41,4.41,0,0,1,308.1,52.79Z"/><path d="M317.68,52.57l0-1.24a4,4,0,0,1-3.12,1.46,3.12,3.12,0,0,1-3.4-3c0-1.92,1.57-2.89,3.85-3l2.63-.1v-.39A2.16,2.16,0,0,0,315.18,44a6,6,0,0,0-3,.85l-.6-1.32a7.48,7.48,0,0,1,3.68-1c2.88,0,4.31,1.45,4.31,4.31v5.71ZM315.34,48c-1.59.09-2.23.77-2.23,1.7s.72,1.7,2,1.7a3.08,3.08,0,0,0,2.5-1.43V47.85Z"/><path d="M330.18,52.57V51h0a4,4,0,0,1-3.46,1.8c-2.91,0-4.78-2.23-4.78-5.15s1.87-5.09,4.74-5.09a4,4,0,0,1,3.44,1.72h0v-6h2V52.57Zm-3.13-8.4c-2,0-3.12,1.49-3.12,3.45s1.16,3.48,3.12,3.48,3.13-1.51,3.13-3.48S329,44.17,327.05,44.17Z"/><path d="M347.48,52.57V51h0a4,4,0,0,1-3.46,1.8c-2.91,0-4.78-2.23-4.78-5.15s1.87-5.09,4.74-5.09a4,4,0,0,1,3.44,1.72h0v-6h2V52.57Zm-3.12-8.4c-2,0-3.13,1.49-3.13,3.45s1.16,3.48,3.13,3.48,3.12-1.51,3.12-3.48S346.32,44.17,344.36,44.17Z"/><path d="M361.55,48.12H354a3,3,0,0,0,3.16,3.12,5.35,5.35,0,0,0,3.25-1.14l.83,1.14a5.74,5.74,0,0,1-4.32,1.55c-2.92,0-4.93-2-4.93-5.15a4.88,4.88,0,0,1,5-5.09,4.49,4.49,0,0,1,4.65,4.7C361.61,47.62,361.55,48.12,361.55,48.12ZM356.9,44a2.89,2.89,0,0,0-2.9,2.81h5.73A2.84,2.84,0,0,0,356.9,44Z"/><path d="M375.21,52.81a7,7,0,0,1-7.28-7.36A7.42,7.42,0,0,1,380.3,40l-.85,1.61a5.67,5.67,0,0,0-4.14-1.74A5.2,5.2,0,0,0,370,45.41,5.2,5.2,0,0,0,375.31,51a5.68,5.68,0,0,0,4.27-1.73l.86,1.46A6.71,6.71,0,0,1,375.21,52.81Z"/><path d="M383.78,40.73a1.22,1.22,0,1,1,1.28-1.22A1.22,1.22,0,0,1,383.78,40.73Zm-1,11.84V42.74h2v9.83Z"/><path d="M396.92,48.12h-7.57a3,3,0,0,0,3.16,3.12,5.42,5.42,0,0,0,3.25-1.14l.83,1.14a5.78,5.78,0,0,1-4.33,1.55c-2.91,0-4.92-2-4.92-5.15a4.88,4.88,0,0,1,5-5.09,4.49,4.49,0,0,1,4.65,4.7C397,47.62,396.92,48.12,396.92,48.12ZM392.26,44a2.88,2.88,0,0,0-2.89,2.81h5.73A2.84,2.84,0,0,0,392.26,44Z"/><path d="M405.92,52.57V47.08c0-1.65-.29-2.89-2.05-2.89s-2.52,1.55-2.52,3.43v5h-2V42.74h2l0,1.55h.06a3.33,3.33,0,0,1,3-1.74c2.79,0,3.52,1.84,3.52,4.2v5.82Z"/><path d="M415.27,52.79a4.91,4.91,0,0,1-5-5.13,5,5,0,0,1,5-5.11,4.78,4.78,0,0,1,3.8,1.41l-.7,1.45a3.88,3.88,0,0,0-2.94-1.2,3.18,3.18,0,0,0-3.18,3.39,3.19,3.19,0,0,0,3.18,3.5,4.15,4.15,0,0,0,3-1.24l.71,1.44A4.91,4.91,0,0,1,415.27,52.79Z"/><path d="M422.29,40.73a1.22,1.22,0,1,1,1.28-1.22A1.22,1.22,0,0,1,422.29,40.73Zm-1,11.84V42.74h2v9.83Z"/><path d="M432.22,52.57l0-1.24a4,4,0,0,1-3.12,1.46,3.12,3.12,0,0,1-3.4-3c0-1.92,1.58-2.89,3.85-3l2.63-.1v-.39A2.16,2.16,0,0,0,429.72,44a6,6,0,0,0-3,.85l-.6-1.32a7.48,7.48,0,0,1,3.68-1c2.88,0,4.31,1.45,4.31,4.31v5.71ZM429.88,48c-1.59.09-2.23.77-2.23,1.7s.72,1.7,2,1.7a3.08,3.08,0,0,0,2.5-1.43V47.85Z"/><path d="M440,52.79A4.7,4.7,0,0,1,436.16,51l.95-1.16a4.34,4.34,0,0,0,2.89,1.4c.92,0,1.89-.33,1.89-1.4s-1.55-1.41-2.22-1.64c-1.44-.49-2.89-1-2.89-2.87s1.57-2.82,3.31-2.82a4.26,4.26,0,0,1,3.35,1.29l-.83,1.22A3.61,3.61,0,0,0,440.13,44c-.95,0-1.57.41-1.57,1.22s.95,1.16,1.92,1.47c.54.19.91.31,1.32.48a2.7,2.7,0,0,1,1.93,2.52C443.73,51.8,441.89,52.79,440,52.79Z"/><path d="M454.57,52.81a6,6,0,0,1-4.61-2.4l1.18-1.34a4.83,4.83,0,0,0,3.62,2,2.5,2.5,0,0,0,2.79-2.4c0-1.49-1.59-2.07-2.31-2.36s-1.74-.68-2.28-1a3.68,3.68,0,0,1-2.36-3.5c0-2.54,2.32-3.81,4.59-3.81a5.54,5.54,0,0,1,4.1,1.85l-1.05,1.36a4.37,4.37,0,0,0-3.15-1.53c-1.41,0-2.48.66-2.48,2s1,1.82,1.84,2.17l2.63,1.1a3.84,3.84,0,0,1,2.48,3.55C459.56,51.37,457.08,52.81,454.57,52.81Z"/><path d="M466.64,52.79a5.12,5.12,0,1,1,5.19-5.11A5,5,0,0,1,466.64,52.79Zm0-8.62a3.2,3.2,0,0,0-3.21,3.45,3.21,3.21,0,1,0,6.4,0A3.2,3.2,0,0,0,466.64,44.17Z"/><path d="M478.62,52.79a4.92,4.92,0,0,1-5-5.13,5,5,0,0,1,5-5.11A4.79,4.79,0,0,1,482.49,44l-.7,1.45a3.88,3.88,0,0,0-2.94-1.2,3.19,3.19,0,0,0-3.19,3.39,3.19,3.19,0,0,0,3.19,3.5,4.18,4.18,0,0,0,3-1.24l.7,1.44A4.88,4.88,0,0,1,478.62,52.79Z"/><path d="M485.64,40.73a1.22,1.22,0,1,1,1.28-1.22A1.22,1.22,0,0,1,485.64,40.73Zm-1,11.84V42.74h2v9.83Z"/><path d="M495.57,52.57l0-1.24a4.1,4.1,0,0,1-3.13,1.46,3.11,3.11,0,0,1-3.39-3c0-1.92,1.57-2.89,3.85-3l2.63-.1v-.39A2.17,2.17,0,0,0,493.06,44a6,6,0,0,0-2.95.85l-.6-1.32a7.45,7.45,0,0,1,3.68-1c2.88,0,4.3,1.45,4.3,4.31v5.71ZM493.23,48c-1.59.09-2.23.77-2.23,1.7s.72,1.7,2,1.7A3.1,3.1,0,0,0,495.53,50V47.85Z"/><path d="M500.56,52.57V38.29h2V52.57Z"/><path d="M514.69,48.12h-7.57a3,3,0,0,0,3.16,3.12,5.42,5.42,0,0,0,3.25-1.14l.83,1.14A5.78,5.78,0,0,1,510,52.79c-2.91,0-4.92-2-4.92-5.15a4.88,4.88,0,0,1,5-5.09,4.49,4.49,0,0,1,4.65,4.7C514.75,47.62,514.69,48.12,514.69,48.12ZM510,44a2.88,2.88,0,0,0-2.89,2.81h5.73A2.84,2.84,0,0,0,510,44Z"/><path d="M520,52.79A4.72,4.72,0,0,1,516.18,51l1-1.16a4.36,4.36,0,0,0,2.9,1.4c.91,0,1.88-.33,1.88-1.4s-1.55-1.41-2.21-1.64c-1.45-.49-2.9-1-2.9-2.87s1.58-2.82,3.31-2.82a4.26,4.26,0,0,1,3.35,1.29l-.82,1.22A3.61,3.61,0,0,0,520.15,44c-.95,0-1.57.41-1.57,1.22s.95,1.16,1.93,1.47c.53.19.91.31,1.32.48a2.69,2.69,0,0,1,1.92,2.52C523.75,51.8,521.91,52.79,520,52.79Z"/><line class="cls-1" x1="230.91" y1="2.52" x2="230.91" y2="79.71"/></g></g></svg>